<svg id="Calque_1" data-name="Calque 1" xmlns="http://www.w3.org/2000/svg" viewBox="0 0 44.26 44.26"><defs><style>.cls-1{fill:#fefefe;}.cls-2{fill:#58a1ff;}.cls-3{fill:#999;}.cls-4{fill:#b0b0b0;}</style></defs><title>account-clicked</title><path class="cls-1" d="M635.8,1019.26H617.1q0-21.68,0-43.34c0-.75.15-.9.9-.9q21.22,0,42.46,0c.75,0,.9.15.9.9q0,21.23,0,42.46c0,.75-.15.91-.9.9-5.87,0-11.73,0-17.6,0,.2-.71.87-.59,1.34-.64a27.66,27.66,0,0,0,5.22-1.29,13.6,13.6,0,0,0,6.38-4.3,7.76,7.76,0,0,0,1.68-6.4,17.27,17.27,0,0,0-6.93-11.8c-1.41-1-1.49-1-2.76.21a12.69,12.69,0,0,1-16.93,0c-1.22-1.17-1.38-1.27-2.67-.25-4.64,3.62-7.28,8.33-7,14.3.15,3,2.11,5.06,4.58,6.61a22.57,22.57,0,0,0,8.24,2.91C634.63,1018.69,635.44,1018.43,635.8,1019.26Z" transform="translate(-617.08 -975.02)"/><path class="cls-2" d="M635.8,1019.26a38.81,38.81,0,0,0-4.13-.86,19,19,0,0,1-7.4-3.47,8.46,8.46,0,0,1-3.42-7.9,17.69,17.69,0,0,1,7.4-12.69,1.64,1.64,0,0,1,2.54.21,12.23,12.23,0,0,0,17.37-.28,1.17,1.17,0,0,1,1.75-.22,17.21,17.21,0,0,1,7.63,11.35c1.18,5.23-1.23,9.28-6.64,11.65a27.07,27.07,0,0,1-7.5,2c-.21,0-.45,0-.56.23H642c-.14-.15-.32-.1-.48-.11s-.44-.07-.62.11Z" transform="translate(-617.08 -975.02)"/><path class="cls-3" d="M640.86,1019.26c.16-.26.42-.22.67-.2.07.05.09.09.06.14a.1.1,0,0,1-.07.06Z" transform="translate(-617.08 -975.02)"/><path class="cls-4" d="M641.52,1019.26a1.27,1.27,0,0,1,0-.2c.18,0,.35,0,.43.2Z" transform="translate(-617.08 -975.02)"/><path class="cls-2" d="M649.7,985.67a10.39,10.39,0,1,1-10.38-10.41A10.4,10.4,0,0,1,649.7,985.67Z" transform="translate(-617.08 -975.02)"/></svg>