<svg id="Calque_1" data-name="Calque 1" xmlns="http://www.w3.org/2000/svg" viewBox="0 0 33.08 33.08"><defs><style>.cls-1{fill:#fefefe;}.cls-2{fill:#64b8db;}.cls-3{fill:#7dd1ef;}.cls-4{fill:#7cd1ef;}.cls-5{fill:#a9e1f4;}.cls-6{fill:#caecf8;}.cls-7{fill:#ebf7fc;}</style></defs><title>diamond</title><path class="cls-1" d="M639.05,991.68c0-3.81,0-7.61,0-11.41,0-.22,0-.27.26-.27h32.55c.22,0,.26,0,.26.27v32.55c0,.22,0,.26-.26.26H639.31c-.22,0-.26,0-.26-.26v-21c.13-.08.2,0,.28.08l.25.25,15.47,15.47a3.15,3.15,0,0,1,.35.38c.06.07.12.12.21,0s.25-.24.37-.36l15.82-15.82.09-.09a3.06,3.06,0,0,0-.64-.86q-2.36-2.83-4.72-5.66c-.1-.12-.19-.26-.38-.23-3.52,0-7,0-10.56,0h-.13c-3.5,0-7,0-10.5,0a.33.33,0,0,0-.33.16c-1.19,1.43-2.39,2.86-3.58,4.3l-1.69,2C639.28,991.59,639.21,991.72,639.05,991.68Z" transform="translate(-639.05 -980)"/><path class="cls-2" d="M655.37,1008l-16-16c-.1-.09-.17-.22-.33-.25v-.06a.72.72,0,0,1,.43-.1h8a1,1,0,0,1,.25,0c.2,0,.27.2.35.36,1.2,2.62,2.42,5.23,3.64,7.85,1.09,2.36,2.17,4.72,3.27,7.07.13.27.25.55.38.82C655.44,1007.85,655.54,1008,655.37,1008Z" transform="translate(-639.05 -980)"/><path class="cls-3" d="M647.88,991.74h-8.83v-.06a12.45,12.45,0,0,0,1.26-1.46c1.37-1.62,2.72-3.26,4.09-4.89.12-.14.19-.34.39-.41a1.12,1.12,0,0,1,.29.46c.65,1.41,1.3,2.83,2,4.24.3.66.64,1.31.89,2a.12.12,0,0,1,0,.1Z" transform="translate(-639.05 -980)"/><path class="cls-4" d="M655.37,1008c.09-.09,0-.16,0-.22q-1.14-2.46-2.3-4.92l-2.45-5.3c-.82-1.76-1.63-3.52-2.45-5.27l-.26-.59h0a.71.71,0,0,1,.47-.1h13.07a1,1,0,0,1,.38,0c.18.12.06.21,0,.31a3.41,3.41,0,0,1-.89.52c0,.13.17.13.26.17a2.38,2.38,0,0,1,1,.81.46.46,0,0,1,.13.32c-.37.91-.81,1.78-1.22,2.66-.89,2-1.8,3.91-2.71,5.87-.63,1.34-1.23,2.69-1.88,4a13,13,0,0,1-.86,1.76C655.49,1008.24,655.43,1008.14,655.37,1008Z" transform="translate(-639.05 -980)"/><path class="cls-5" d="M655.62,1008.12a15.42,15.42,0,0,1,.71-1.61c.76-1.66,1.54-3.3,2.3-5q1.47-3.13,2.92-6.29c.23-.49.42-1,.7-1.47.27,0,.2.33.37.48a2.72,2.72,0,0,1,1.74-1.71c-.12-.16-.29-.18-.42-.25a2.16,2.16,0,0,1-.53-.36c-.08-.09-.14-.18,0-.27a1.07,1.07,0,0,1,.47-.05h7.58c.19,0,.42-.09.53.17l-.28.25-15.78,15.78Z" transform="translate(-639.05 -980)"/><path class="cls-5" d="M661.87,991.8c-.12-.11-.27-.06-.4-.06H647.88v-.07c.55-.59,1.18-1.08,1.78-1.62s1.4-1.26,2.1-1.88l2.78-2.48a5.75,5.75,0,0,1,.94-.77h.07a3.37,3.37,0,0,1,1,.79c.89.78,1.78,1.58,2.66,2.37l2.74,2.44a2.1,2.1,0,0,1,.5.53A.94.94,0,0,1,661.87,991.8Z" transform="translate(-639.05 -980)"/><path class="cls-2" d="M655.48,984.92c-.49.45-1,.92-1.48,1.37l-2.12,1.87-3.43,3.05c-.19.16-.31.4-.57.46l-.89-2c-.73-1.56-1.45-3.12-2.18-4.67,0,0,0-.07,0-.1h10.69Z" transform="translate(-639.05 -980)"/><path class="cls-6" d="M662.38,991l-2.06-1.83-2.85-2.54-1.92-1.75h10.77a.34.34,0,0,1,0,.36c-.27.55-.51,1.11-.78,1.66,0,.09-.08.17-.19.2s-.23-.25-.33-.4-.1-.3-.22-.5a3.48,3.48,0,0,1-.82,1.38,3.13,3.13,0,0,1-1.36.81,2.83,2.83,0,0,1,1.6,1.21c0,.35-.24.61-.35.92s-.31.61-.43.93c0,.09-.09.17-.21.17-.34-.18-.41-.54-.56-.85C662.5,990.83,662.56,991.05,662.38,991Z" transform="translate(-639.05 -980)"/><path class="cls-7" d="M663.16,991.61a.14.14,0,0,0,.14-.1l.81-1.74a.78.78,0,0,0,0-.16c.23.06.28.27.38.44s.13.35.25.6a3.37,3.37,0,0,1,2.19-2.23,3,3,0,0,1-1.08-.56c-.25-.21-.55-.39-.59-.76a1.46,1.46,0,0,0,.33-.61,13.15,13.15,0,0,0,.71-1.58,7.08,7.08,0,0,1,.88,1c.6.69,1.17,1.41,1.76,2.12l2.15,2.58.81,1c.05.06.19.1.07.23-.09-.11-.22-.07-.33-.07h-8c-.11,0-.24,0-.33.06S663.14,991.75,663.16,991.61Z" transform="translate(-639.05 -980)"/><path class="cls-1" d="M663.16,991.61a.35.35,0,0,0,.19.19,2.64,2.64,0,0,0,1,.6c.08,0,.18,0,.18.15s-.1.09-.17.12a2.45,2.45,0,0,0-1.59,1.59c0,.06,0,.16-.12.17s-.11-.11-.14-.18a1.2,1.2,0,0,0-.23-.45,2.2,2.2,0,0,0-1.3-1.11c-.08,0-.23,0-.23-.14s.14-.13.24-.17a2.44,2.44,0,0,0,.91-.58,1.83,1.83,0,0,0,.51-.77c.14-.1.06-.4.24-.39s.12.29.21.43Z" transform="translate(-639.05 -980)"/><path class="cls-1" d="M665.28,987.1a2.73,2.73,0,0,0,1.61,1.19c.08,0,.21,0,.22.12s-.13.13-.21.16a3,3,0,0,0-2,2c0,.08,0,.19-.14.18s-.1-.1-.12-.17a2.67,2.67,0,0,0-.5-1,2.78,2.78,0,0,0-1.53-1.05c-.07,0-.2,0-.18-.14s.1-.09.17-.11a2.92,2.92,0,0,0,2-2c0-.07,0-.17.12-.17s.11.11.14.19A2.67,2.67,0,0,0,665.28,987.1Z" transform="translate(-639.05 -980)"/></svg>