<svg id="Calque_1" data-name="Calque 1" xmlns="http://www.w3.org/2000/svg" xmlns:xlink="http://www.w3.org/1999/xlink" viewBox="0 0 55.13 35.13"><defs><style>.cls-1{fill:none;}.cls-2{clip-path:url(#clip-path);}.cls-3{fill:#797979;}.cls-4{fill:#fefefe;}.cls-5{fill:#696969;}.cls-6{fill:#474747;}.cls-7{fill:#3f3f3f;}.cls-8{fill:#6f6f6f;}.cls-9{fill:#303030;}.cls-10{fill:#868686;}.cls-11{fill:#616161;}.cls-12{fill:#484848;}.cls-13{fill:#3e3e3e;}.cls-14{fill:#6e6e6e;}.cls-15{fill:#6c6c6c;}</style><clipPath id="clip-path" transform="translate(-616.05 -967.01)"><rect class="cls-1" x="616" y="967" width="55" height="35"/></clipPath></defs><title>training</title><g class="cls-2"><path class="cls-3" d="M616.06,987.34V982c.2-.33.08-.76.37-1.09a2.49,2.49,0,0,1,1.72-.82c.46,0,.92,0,1.39,0s.65-.05.66-.68c0-1.4,0-2.8,0-4.2a3.59,3.59,0,0,1,3.38-3.82c.83-.07,1.67,0,2.5,0a1.18,1.18,0,0,0,.67-.11,1.36,1.36,0,0,0,.16-1.16,3.38,3.38,0,0,1,3.2-3c1.46.12,2.93,0,4.4.06a1.82,1.82,0,0,1,1,.36,3.26,3.26,0,0,1,1.67,2.72,5.93,5.93,0,0,0-.08,1.11q0,3.69,0,7.38a2.16,2.16,0,0,0,.26,1.17.81.81,0,0,0,.65.17H649.2a.8.8,0,0,0,.6-.15,1.82,1.82,0,0,0,.25-1v-8.13a3.05,3.05,0,0,0,0-.52,3.31,3.31,0,0,1,3.16-3.14c1.46.1,2.93,0,4.4,0a1.75,1.75,0,0,1,1,.38,3.31,3.31,0,0,1,1.64,2.57,1.2,1.2,0,0,0,.18,1.13,1.67,1.67,0,0,0,.88.11,12.83,12.83,0,0,1,2.91.12,3.53,3.53,0,0,1,2.74,3.36c0,1.49,0,3,0,4.46,0,.73.06.77.79.79a7.43,7.43,0,0,1,1.7.08,1.91,1.91,0,0,1,1.66,1.91,50.29,50.29,0,0,1,0,5.21,1.7,1.7,0,0,1-1.51,1.82,1.19,1.19,0,0,1-.36.09,10.54,10.54,0,0,0-1.37-.11,1.23,1.23,0,0,0-.79.26,1.27,1.27,0,0,0-.1.72c0,1.42,0,2.83,0,4.25a3.5,3.5,0,0,1-3.22,3.62,12.69,12.69,0,0,0-2.61-.12,1.69,1.69,0,0,0-.66.16c-.46.33-.19.77-.18,1.18a3.41,3.41,0,0,1-1.52,2.58c-.47.32-1,.24-1.51.39h-.1a30.26,30.26,0,0,0-4,0H653c-.46-.18-1,0-1.42-.34A3.24,3.24,0,0,1,650,999a5.62,5.62,0,0,0,.08-1c0-2.51,0-5,0-7.52a2.36,2.36,0,0,0-.2-1.08.74.74,0,0,0-.13-.12,2.47,2.47,0,0,0-1-.2h-10.3a1.59,1.59,0,0,0-1.1.28,2.35,2.35,0,0,0-.22,1.08q0,3.9,0,7.79a4.53,4.53,0,0,0,.07.74,3.21,3.21,0,0,1-1.53,2.77c-.45.31-1,.22-1.46.37H634a30.26,30.26,0,0,0-4,0h-.11c-.47-.18-1,0-1.46-.37a3.41,3.41,0,0,1-1.56-2.58c0-.38.23-.78-.08-1.14l-.14-.08a8.56,8.56,0,0,0-2.72-.1c-.17,0-.34.07-.52.08a3.74,3.74,0,0,1-2.85-1.89,2.56,2.56,0,0,1-.34-1.21c-.05-1.6,0-3.19,0-4.79a1.27,1.27,0,0,0-.1-.72,2.34,2.34,0,0,0-1.58-.21c-.15,0-.31.06-.47.07A1.89,1.89,0,0,1,616.06,987.34Z" transform="translate(-616.05 -967.01)"/><path class="cls-4" d="M657.23,1002.13a3.86,3.86,0,0,0,2.2-1.35,4.08,4.08,0,0,0,.63-1.61,6.75,6.75,0,0,1,.05-1.42c1.2-.08,2.42,0,3.63,0a3.38,3.38,0,0,0,3-3.54c-.07-1.71,0-3.42,0-5.13a18.37,18.37,0,0,1,2.46,0,2.44,2.44,0,0,0,1.49-.9,2.38,2.38,0,0,0,.39-1.34c0-1.38,0-2.76,0-4.14a2.31,2.31,0,0,0-2.28-2.32c-.53,0-1.06,0-1.59,0s-.52-.1-.51-.51q0-2.52,0-5a3,3,0,0,0-1.28-2.4,4.19,4.19,0,0,0-2.69-.78,11,11,0,0,1-2.63-.08c-.12-.45,0-.93-.08-1.38a2.52,2.52,0,0,0-.72-1.63,3.47,3.47,0,0,0-3-1.26c-1.11,0-2.22,0-3.32,0a2.28,2.28,0,0,0-1.1.36,3.29,3.29,0,0,0-1.71,2.53,1.63,1.63,0,0,0,0,.58v9c0,.18.08.39-.08.55H637.63a1,1,0,0,1-.62-.07,1.43,1.43,0,0,1,0-.58v-8.92a1.63,1.63,0,0,0,0-.58c.07-1.3-1.58-2.87-3-2.9s-2.71,0-4.06,0a2.51,2.51,0,0,0-1.54.7,3.15,3.15,0,0,0-1.23,2.15c-.13.48.08,1-.11,1.47l-3.59,0a4.26,4.26,0,0,0-1.4.53,2.91,2.91,0,0,0-1.52,2.06,4.07,4.07,0,0,0-.07,1.12c0,1.49,0,3,0,4.46,0,.39-.09.53-.5.53a14.31,14.31,0,0,0-1.85,0,1.93,1.93,0,0,0-1.81,1.45c0,.12-.13.16-.21.23,0-4.85,0-9.71,0-14.57,0-.35.05-.44.43-.44h54.29c.32,0,.41.06.41.41q0,17.16,0,34.34c0,.34-.09.38-.39.38C666.27,1002.12,661.75,1002.13,657.23,1002.13Z" transform="translate(-616.05 -967.01)"/><path class="cls-4" d="M634.15,1002.13a5,5,0,0,0,1.56-.72,3.08,3.08,0,0,0,1.22-2.25,1.63,1.63,0,0,0,0-.58v-9a1.41,1.41,0,0,1,0-.58.86.86,0,0,1,.42,0h12.22a.73.73,0,0,1,.46.06h0a1,1,0,0,1,.06.57v9a1.63,1.63,0,0,0,0,.58,3.11,3.11,0,0,0,2.3,2.78,2.18,2.18,0,0,1,.48.19Z" transform="translate(-616.05 -967.01)"/><path class="cls-4" d="M616.06,987.34A2.33,2.33,0,0,0,618,989a18.37,18.37,0,0,1,2.46,0c0,1.71,0,3.42,0,5.13a3.19,3.19,0,0,0,.89,2.52,3.86,3.86,0,0,0,2.08,1h3.23a.66.66,0,0,1,.41.06h0a6.06,6.06,0,0,1,.06,1.41,3.2,3.2,0,0,0,2.54,2.83,1.43,1.43,0,0,1,.28.13c-4.47,0-8.95,0-13.43,0-.33,0-.41-.08-.4-.41C616.07,996.93,616.06,992.14,616.06,987.34Z" transform="translate(-616.05 -967.01)"/><path class="cls-5" d="M653.09,1002.13a.5.5,0,0,1,.39-.11h3.25a.52.52,0,0,1,.4.11Z" transform="translate(-616.05 -967.01)"/><path class="cls-5" d="M630,1002.13a.5.5,0,0,1,.39-.11h3.26a.5.5,0,0,1,.39.11Z" transform="translate(-616.05 -967.01)"/><path class="cls-4" d="M637.05,982.51h13s.07.06.07.13c0,1.39.05,2.78,0,4.17a.64.64,0,0,1-.36.05H637.33a.65.65,0,0,1-.31,0A28.18,28.18,0,0,1,637.05,982.51Z" transform="translate(-616.05 -967.01)"/><path class="cls-4" d="M666.72,986.81c0-1.29,0-2.58,0-3.87,0-.33.11-.45.43-.43.56,0,1.13,0,1.69,0a4.78,4.78,0,0,1,.06,1.36c0,1,0,1.93,0,2.9A8.52,8.52,0,0,1,666.72,986.81Z" transform="translate(-616.05 -967.01)"/><path class="cls-4" d="M618.31,982.54c.56,0,1.13,0,1.69,0,.32,0,.43.1.43.43,0,1.29,0,2.58,0,3.87a8.93,8.93,0,0,1-2.13,0A35.77,35.77,0,0,1,618.31,982.54Z" transform="translate(-616.05 -967.01)"/><path class="cls-6" d="M650.11,989.05H637c0,.07-.07.07-.1,0,.13-.19.33-.1.49-.1,4.07,0,8.14,0,12.21,0C649.79,988.94,650,988.85,650.11,989.05Z" transform="translate(-616.05 -967.01)"/><path class="cls-7" d="M637,986.8H650.1c0-.07.06-.07.1,0s-.17.1-.27.1H637s0,0,0-.07S637,986.8,637,986.8Z" transform="translate(-616.05 -967.01)"/><path class="cls-8" d="M650.08,980.3l0-6c0-1.17,0-2.33,0-3.5a1,1,0,0,1,.09-.62c0,3.27,0,6.54,0,9.8C650.21,980.07,650.27,980.24,650.08,980.3Z" transform="translate(-616.05 -967.01)"/><path class="cls-8" d="M650.2,999.16a1.22,1.22,0,0,1-.09-.73q0-4.7,0-9.39c.15.09.11.25.11.38C650.21,992.67,650.2,995.91,650.2,999.16Z" transform="translate(-616.05 -967.01)"/><path class="cls-8" d="M636.93,989h.1q0,4.69,0,9.38a1.22,1.22,0,0,1-.09.73Z" transform="translate(-616.05 -967.01)"/><path class="cls-8" d="M636.93,970.14a.74.74,0,0,1,.09.46c0,3.21,0,6.41,0,9.62-.13-.11-.09-.26-.09-.39C636.92,976.6,636.93,973.37,636.93,970.14Z" transform="translate(-616.05 -967.01)"/><path class="cls-9" d="M637,986.8a.31.31,0,0,0,0,.1c-.17-.06-.1-.21-.1-.32q0-1.89,0-3.78c0-.1-.13-.3.13-.29C637,983.94,637,985.37,637,986.8Z" transform="translate(-616.05 -967.01)"/><path class="cls-9" d="M650.2,986.81h-.1c0-1.43,0-2.86,0-4.29.22,0,.13.15.13.23C650.21,984.1,650.2,985.45,650.2,986.81Z" transform="translate(-616.05 -967.01)"/><path class="cls-10" d="M618.31,982.54v4.25c0,.07-.07.07-.11,0,0-1.29,0-2.58,0-3.87C618.19,982.79,618.16,982.64,618.31,982.54Z" transform="translate(-616.05 -967.01)"/><path class="cls-10" d="M668.81,986.79c0-1.41,0-2.83,0-4.25.14.1.11.25.11.39,0,1.29,0,2.58,0,3.87C668.88,986.86,668.85,986.86,668.81,986.79Z" transform="translate(-616.05 -967.01)"/><path class="cls-11" d="M627,997.77c-1.22,0-2.43.06-3.64,0a31.8,31.8,0,0,1,3.52,0S627,997.74,627,997.77Z" transform="translate(-616.05 -967.01)"/><path class="cls-11" d="M663.74,997.72c-1.21.11-2.42,0-3.63.06,0,0-.05,0,0-.07a.05.05,0,0,1,0,0A33.82,33.82,0,0,1,663.74,997.72Z" transform="translate(-616.05 -967.01)"/><path class="cls-12" d="M669.18,989c-.82.1-1.64,0-2.46,0A7,7,0,0,1,669.18,989Z" transform="translate(-616.05 -967.01)"/><path class="cls-12" d="M620.41,989.05c-.82,0-1.64.05-2.46,0A7,7,0,0,1,620.41,989.05Z" transform="translate(-616.05 -967.01)"/><path class="cls-13" d="M668.81,986.79h.11a4.55,4.55,0,0,1-2.2,0Z" transform="translate(-616.05 -967.01)"/><path class="cls-13" d="M618.2,986.8h.11l2.1,0A4.59,4.59,0,0,1,618.2,986.8Z" transform="translate(-616.05 -967.01)"/><path class="cls-14" d="M627,971.58a6.54,6.54,0,0,1,.11-1.47C627.08,970.6,627.27,971.1,627,971.58Z" transform="translate(-616.05 -967.01)"/><path class="cls-15" d="M660.11,997.68v.1a9.23,9.23,0,0,1-.05,1.39A2.7,2.7,0,0,1,660.11,997.68Z" transform="translate(-616.05 -967.01)"/><path class="cls-15" d="M627.07,999.17a9.45,9.45,0,0,1-.06-1.41A2.34,2.34,0,0,1,627.07,999.17Z" transform="translate(-616.05 -967.01)"/><path class="cls-14" d="M660,970.11a4.27,4.27,0,0,1,.08,1.38C659.88,971,660.05,970.57,660,970.11Z" transform="translate(-616.05 -967.01)"/></g></svg>